<?xml version="1.0" encoding="UTF-8" standalone="no"?>
<svg
   xmlns:dc="http://purl.org/dc/elements/1.1/"
   xmlns:cc="http://creativecommons.org/ns#"
   xmlns:rdf="http://www.w3.org/1999/02/22-rdf-syntax-ns#"
   xmlns:svg="http://www.w3.org/2000/svg"
   xmlns="http://www.w3.org/2000/svg"
   xmlns:sodipodi="http://sodipodi.sourceforge.net/DTD/sodipodi-0.dtd"
   xmlns:inkscape="http://www.inkscape.org/namespaces/inkscape"
   version="1"
   viewBox="0 0 24 24"
   enable-background="new 0 0 24 24"
   id="svg4"
   sodipodi:docname="logo.svg"
   inkscape:version="0.92.4 (5da689c313, 2019-01-14)">
  <metadata
     id="metadata10">
    <rdf:RDF>
      <cc:Work
         rdf:about="">
        <dc:format>image/svg+xml</dc:format>
        <dc:type
           rdf:resource="http://purl.org/dc/dcmitype/StillImage" />
      </cc:Work>
    </rdf:RDF>
  </metadata>
  <defs
     id="defs8" />
  <sodipodi:namedview
     pagecolor="#ffffff"
     bordercolor="#666666"
     borderopacity="1"
     objecttolerance="10"
     gridtolerance="10"
     guidetolerance="10"
     inkscape:pageopacity="0"
     inkscape:pageshadow="2"
     inkscape:window-width="1856"
     inkscape:window-height="1016"
     id="namedview6"
     showgrid="false"
     inkscape:snap-text-baseline="true"
     inkscape:zoom="19.666667"
     inkscape:cx="7.4055304"
     inkscape:cy="9.6212848"
     inkscape:window-x="64"
     inkscape:window-y="27"
     inkscape:window-maximized="1"
     inkscape:current-layer="svg4" />
  <path
     d="m 12.375686,0.15127437 c -0.148356,0 -0.297157,0.0209573 -0.439807,0.0648132 L 6.6975368,1.8271726 c -0.4421301,0.1357959 -0.4421301,0.7206718 0,0.8564677 L 7.6095591,2.963729 C 7.4091527,3.2114661 7.2861253,3.5147196 7.2739164,3.8456592 7.0930448,3.9493364 6.966051,4.1362209 6.9660509,4.3595398 c 0,0.2024703 0.1056184,0.3725382 0.2592551,0.4814737 L 6.7461471,6.9983862 c -0.041694,0.1876336 0.1018354,0.3657349 0.2939767,0.3657349 h 1.0532238 c 0.1923287,0 0.3356737,-0.1781013 0.2939768,-0.3657349 L 7.9081654,4.8410135 C 8.0618031,4.7320778 8.1674205,4.5620101 8.1674205,4.3595398 8.1674205,4.1422303 8.0460514,3.9604734 7.8734437,3.8549183 7.8877166,3.5728108 8.0322466,3.3232591 8.2623263,3.1651146 l 3.6735527,1.1272967 c 0.170164,0.052212 0.4974,0.1173883 0.879615,0 l 5.238341,-1.6087705 c 0.442317,-0.1359837 0.442317,-0.7204842 0,-0.8564676 L 12.815494,0.21608814 C 12.672751,0.17223225 12.524041,0.15127437 12.375686,0.15127437 Z M 9.0354621,4.0308414 8.7692626,6.1627515 c 0,0.6639464 1.6147714,1.2013696 3.6064234,1.2013696 1.991652,0 3.606423,-0.5374232 3.606423,-1.2013696 L 15.71591,4.0308414 12.991417,4.8664761 c -0.535854,0.1645315 -0.991992,0.073621 -1.231462,0 z M 4.9429354,6.1534924 0.20227092,8.5238246 V 12.079322 H 23.905593 V 8.5238246 L 19.164929,6.1534924 h -2.54394 a 0.27883409,0.27883409 0 0 1 0,0.00695 c 0,0.4244391 -0.252026,0.754198 -0.525456,0.9698918 -0.268643,0.2119183 -0.596339,0.3621424 -0.967576,0.4861032 -0.743883,0.2483919 -1.699078,0.3865679 -2.752271,0.3865679 -1.053191,2e-7 -2.008389,-0.138176 -2.7522704,-0.3865679 C 9.3827851,7.5360825 9.1955526,7.4141544 8.9961109,7.301622 8.8882403,7.695483 8.5313626,8.0029997 8.0933476,8.0029997 H 7.0401238 C 6.4461592,8.0029999 5.9921762,7.4399444 6.1211571,6.8594995 L 6.278562,6.1534924 Z M 0.20227092,13.264488 V 23.930983 H 2.5726032 V 13.264488 Z m 4.74066448,0 v 5.925831 h 2.3703322 v -5.925831 z m 11.8516606,0 v 5.925831 h 2.370333 v -5.925831 z m 4.740665,0 v 10.666495 h 2.370332 V 13.264488 Z"
     id="path2"
     inkscape:connector-curvature="0"
     style="stroke-width:1.18516612;fill:#fefefe;fill-opacity:1" />
</svg>
